<?xml version="1.0" encoding="UTF-8" standalone="no"?>
<!-- Created with Inkscape (http://www.inkscape.org/) -->

<svg
   width="512mm"
   height="512mm"
   viewBox="0 0 512 512"
   version="1.1"
   id="svg1"
   xml:space="preserve"
   sodipodi:docname="csalt-original-official-logo.svg"
   inkscape:version="1.4.4 (dcaf3e7, 2026-05-05)"
   xmlns:inkscape="http://www.inkscape.org/namespaces/inkscape"
   xmlns:sodipodi="http://sodipodi.sourceforge.net/DTD/sodipodi-0.dtd"
   xmlns="http://www.w3.org/2000/svg"
   xmlns:svg="http://www.w3.org/2000/svg"
   xmlns:rdf="http://www.w3.org/1999/02/22-rdf-syntax-ns#"
   xmlns:cc="http://creativecommons.org/ns#"
   xmlns:dc="http://purl.org/dc/elements/1.1/"><title
     id="title1">C-Salt Original Official Logo</title><sodipodi:namedview
     id="namedview1"
     pagecolor="#ffffff"
     bordercolor="#000000"
     borderopacity="0.25"
     inkscape:showpageshadow="2"
     inkscape:pageopacity="0.0"
     inkscape:pagecheckerboard="true"
     inkscape:deskcolor="#d1d1d1"
     inkscape:document-units="px"
     showgrid="true"
     inkscape:zoom="0.34205357"
     inkscape:cx="795.19709"
     inkscape:cy="1119.7077"
     inkscape:window-width="1440"
     inkscape:window-height="841"
     inkscape:window-x="0"
     inkscape:window-y="31"
     inkscape:window-maximized="0"
     inkscape:current-layer="layer3" /><defs
     id="defs1"><inkscape:perspective
       sodipodi:type="inkscape:persp3d"
       inkscape:vp_x="184.49311 : 415.42611 : 1"
       inkscape:vp_y="0 : 1000 : 0"
       inkscape:vp_z="396.6918 : 375.31892 : 1"
       inkscape:persp3d-origin="256 : 170.66667 : 1"
       id="perspective3" /><rect
       x="128"
       y="128"
       width="1664"
       height="1664"
       id="rect2" /><rect
       x="255.99999"
       y="128"
       width="1408"
       height="1664"
       id="rect1" /></defs><g
     inkscape:groupmode="layer"
     id="layer3"
     inkscape:label="C-Salt logo"><g
       id="g12"
       inkscape:label="C-Salt logo group"><path
         d="m 232.64,218.03898 h 29.184 q -1.344,-11.904 -6.528,-21.12 -5.184,-9.216 -13.248,-15.36 -7.872,-6.336 -18.048,-9.6 -9.984,-3.264 -21.312,-3.264 -15.744,0 -28.416,5.568 -12.48,5.568 -21.12,15.36 -8.64,9.792 -13.248,23.04 -4.608,13.056 -4.608,28.416 0,14.976 4.608,28.032 4.608,12.864 13.248,22.464 8.64,9.6 21.12,15.168 12.672,5.376 28.416,5.376 12.672,0 23.232,-3.84 10.56,-3.84 18.432,-11.136 7.872,-7.296 12.672,-17.664 4.8,-10.368 5.952,-23.232 h -29.184 q -1.728,13.824 -9.6,22.272 -7.68,8.448 -21.504,8.448 -10.176,0 -17.28,-3.84 -7.104,-4.032 -11.52,-10.56 -4.416,-6.528 -6.528,-14.592 -1.92,-8.256 -1.92,-16.896 0,-9.024 1.92,-17.472 2.112,-8.448 6.528,-14.976 4.416,-6.72 11.52,-10.56 7.104,-4.032 17.28,-4.032 5.568,0 10.56,1.92 5.184,1.728 9.216,4.992 4.032,3.264 6.72,7.68 2.688,4.224 3.456,9.408 z"
         id="text1"
         style="display:inline;font-weight:bold;font-size:192px;font-family:'Helvetica Neue';-inkscape-font-specification:'Helvetica Neue, Bold';white-space:pre;fill:#5269b4;stroke:#5269b4;stroke-width:8.93568"
         transform="matrix(2.7289603,0,0,2.6655161,-287.43404,-384.80864)"
         aria-label="C"
         inkscape:label="c" /><path
         id="path8"
         style="fill:#d3dce6;stroke-width:24.1"
         transform="matrix(0.8347291,0,0,0.8347291,84.862189,64.334759)"
         d="m 277.86313,269.04848 -68.30303,39.43477 -68.30302,-39.43477 0,-78.86954 68.30302,-39.43477 68.30303,39.43477 z"
         inkscape:label="salt cube base" /><path
         style="fill:#738eac;fill-opacity:1;stroke:none;stroke-width:24.1;stroke-dasharray:none;stroke-opacity:1"
         d="m 202.77359,223.08266 57.01452,32.91735 v 65.83471 l -57.01452,-32.91737 z"
         id="path9"
         inkscape:label="dark cube side" /><path
         style="fill:#a8b9cc;fill-opacity:1;stroke:none;stroke-width:24.1;stroke-dasharray:none;stroke-opacity:1"
         d="m 259.78811,256.00001 57.01453,-32.91735 v 65.83469 l -57.01453,32.91737 z"
         id="path10"
         inkscape:label="midtone cube side" /><path
         style="fill:#7c95b1;fill-opacity:1;stroke:none;stroke-width:24.1;stroke-dasharray:none;stroke-opacity:1"
         d="m 259.78811,321.83472 -57.01452,-32.91737 v -65.83469 l 5.67905,3.2788 v 59.6088 l 51.33547,28.78418 z"
         id="path11"
         inkscape:label="dark cube side edge light" /><path
         style="fill:#b0c0d1;fill-opacity:1;stroke:none;stroke-width:24.1;stroke-dasharray:none;stroke-opacity:1"
         d="m 259.78812,321.83472 57.01452,-32.91737 v -65.83469 l -5.67905,3.2788 v 59.6088 l -51.33547,28.78418 z"
         id="path11-8"
         inkscape:label="midtone cube side edge light" /><path
         style="fill:#c8d4df;fill-opacity:1;stroke:none;stroke-width:24.1;stroke-dasharray:none;stroke-opacity:1"
         d="m 208.45264,226.36146 -5.67905,-3.2788 57.01452,-32.91735 57.01453,32.91735 -5.67905,3.2788 -51.33548,-29.40448 z"
         id="path12"
         inkscape:label="highlight cube side edge shadow" /></g></g><metadata
     id="metadata1"><rdf:RDF><cc:Work
         rdf:about=""><cc:license
           rdf:resource="http://creativecommons.org/licenses/by-nc-sa/4.0/" /><dc:title>C-Salt Original Official Logo</dc:title><dc:date>2026/7/12</dc:date><dc:creator><cc:Agent><dc:title>BurningHot687</dc:title></cc:Agent></dc:creator><dc:description>The original, official C-Salt logo</dc:description></cc:Work><cc:License
         rdf:about="http://creativecommons.org/licenses/by-nc-sa/4.0/"><cc:permits
           rdf:resource="http://creativecommons.org/ns#Reproduction" /><cc:permits
           rdf:resource="http://creativecommons.org/ns#Distribution" /><cc:requires
           rdf:resource="http://creativecommons.org/ns#Notice" /><cc:requires
           rdf:resource="http://creativecommons.org/ns#Attribution" /><cc:prohibits
           rdf:resource="http://creativecommons.org/ns#CommercialUse" /><cc:permits
           rdf:resource="http://creativecommons.org/ns#DerivativeWorks" /><cc:requires
           rdf:resource="http://creativecommons.org/ns#ShareAlike" /></cc:License></rdf:RDF></metadata></svg>
